<svg width="1120" height="832" viewBox="0 0 1120 832" fill="none" xmlns="http://www.w3.org/2000/svg">
<g clip-path="url(#clip0_3396_42001)">
<rect width="1120" height="832" rx="56" fill="#070708"/>
<mask id="mask0_3396_42001" style="mask-type:alpha" maskUnits="userSpaceOnUse" x="-80" y="0" width="1280" height="832">
<rect x="-80" width="1280" height="832" fill="white"/>
<path d="M424.21 319.421C424.879 319.421 425.421 318.879 425.421 318.21C425.421 317.542 424.879 317 424.21 317C423.542 317 423 317.542 423 318.21C423 318.879 423.542 319.421 424.21 319.421Z" fill="white" stroke="white" stroke-miterlimit="10"/>
<path d="M695.21 319.421C695.879 319.421 696.421 318.879 696.421 318.21C696.421 317.542 695.879 317 695.21 317C694.542 317 694 317.542 694 318.21C694 318.879 694.542 319.421 695.21 319.421Z" fill="white" stroke="white" stroke-miterlimit="10"/>
</mask>
<g mask="url(#mask0_3396_42001)">
<g filter="url(#filter0_f_3396_42001)">
<circle cx="-427.705" cy="878.295" r="396.295" fill="#EA4698"/>
</g>
<g filter="url(#filter1_f_3396_42001)">
<circle cx="1057.48" cy="1136.48" r="209.479" fill="#DE4692"/>
</g>
<g filter="url(#filter2_f_3396_42001)">
<circle cx="-509.138" cy="1043.14" r="429.136" fill="#D02E4B"/>
</g>
<g filter="url(#filter3_f_3396_42001)">
<circle cx="1518" cy="500" r="220" fill="#F6B7C2"/>
</g>
<g filter="url(#filter4_f_3396_42001)">
<circle cx="1326.58" cy="144.58" r="306.58" fill="#66171F"/>
</g>
<g filter="url(#filter5_f_3396_42001)">
<circle cx="282.039" cy="-462.961" r="481.039" fill="#400B26"/>
</g>
</g>
<path d="M424.21 319.421C424.879 319.421 425.421 318.879 425.421 318.21C425.421 317.542 424.879 317 424.21 317C423.542 317 423 317.542 423 318.21C423 318.879 423.542 319.421 424.21 319.421Z" fill="white" fill-opacity="0.2" stroke="white" stroke-opacity="0.2" stroke-miterlimit="10"/>
<path d="M695.21 319.421C695.879 319.421 696.421 318.879 696.421 318.21C696.421 317.542 695.879 317 695.21 317C694.542 317 694 317.542 694 318.21C694 318.879 694.542 319.421 695.21 319.421Z" fill="white" fill-opacity="0.2" stroke="white" stroke-opacity="0.2" stroke-miterlimit="10"/>
<path d="M329.21 649.421C329.879 649.421 330.421 648.879 330.421 648.21C330.421 647.542 329.879 647 329.21 647C328.542 647 328 647.542 328 648.21C328 648.879 328.542 649.421 329.21 649.421Z" fill="white" fill-opacity="0.2" stroke="white" stroke-opacity="0.2" stroke-miterlimit="10"/>
<path d="M354.21 690.421C354.879 690.421 355.421 689.879 355.421 689.21C355.421 688.542 354.879 688 354.21 688C353.542 688 353 688.542 353 689.21C353 689.879 353.542 690.421 354.21 690.421Z" fill="white" fill-opacity="0.2" stroke="white" stroke-opacity="0.2" stroke-miterlimit="10"/>
<path d="M778.603 669.259C778.937 669.837 779.677 670.036 780.256 669.702C780.835 669.367 781.033 668.627 780.699 668.048C780.365 667.469 779.624 667.271 779.046 667.605C778.467 667.939 778.268 668.68 778.603 669.259Z" fill="white" fill-opacity="0.2" stroke="white" stroke-opacity="0.2" stroke-miterlimit="10"/>
<path d="M744.605 714.259C744.94 714.837 745.68 715.036 746.259 714.702C746.838 714.367 747.036 713.627 746.702 713.048C746.368 712.469 745.627 712.271 745.049 712.605C744.47 712.939 744.271 713.68 744.605 714.259Z" fill="white" fill-opacity="0.2" stroke="white" stroke-opacity="0.2" stroke-miterlimit="10"/>
</g>
<defs>
<filter id="filter0_f_3396_42001" x="-1228" y="78" width="1600.59" height="1600.59" filterUnits="userSpaceOnUse" color-interpolation-filters="sRGB">
<feFlood flood-opacity="0" result="BackgroundImageFix"/>
<feBlend mode="normal" in="SourceGraphic" in2="BackgroundImageFix" result="shape"/>
<feGaussianBlur stdDeviation="202" result="effect1_foregroundBlur_3396_42001"/>
</filter>
<filter id="filter1_f_3396_42001" x="554" y="633" width="1006.96" height="1006.96" filterUnits="userSpaceOnUse" color-interpolation-filters="sRGB">
<feFlood flood-opacity="0" result="BackgroundImageFix"/>
<feBlend mode="normal" in="SourceGraphic" in2="BackgroundImageFix" result="shape"/>
<feGaussianBlur stdDeviation="147" result="effect1_foregroundBlur_3396_42001"/>
</filter>
<filter id="filter2_f_3396_42001" x="-1342.27" y="210" width="1666.27" height="1666.27" filterUnits="userSpaceOnUse" color-interpolation-filters="sRGB">
<feFlood flood-opacity="0" result="BackgroundImageFix"/>
<feBlend mode="normal" in="SourceGraphic" in2="BackgroundImageFix" result="shape"/>
<feGaussianBlur stdDeviation="202" result="effect1_foregroundBlur_3396_42001"/>
</filter>
<filter id="filter3_f_3396_42001" x="1004" y="-14" width="1028" height="1028" filterUnits="userSpaceOnUse" color-interpolation-filters="sRGB">
<feFlood flood-opacity="0" result="BackgroundImageFix"/>
<feBlend mode="normal" in="SourceGraphic" in2="BackgroundImageFix" result="shape"/>
<feGaussianBlur stdDeviation="147" result="effect1_foregroundBlur_3396_42001"/>
</filter>
<filter id="filter4_f_3396_42001" x="636" y="-546" width="1381.16" height="1381.16" filterUnits="userSpaceOnUse" color-interpolation-filters="sRGB">
<feFlood flood-opacity="0" result="BackgroundImageFix"/>
<feBlend mode="normal" in="SourceGraphic" in2="BackgroundImageFix" result="shape"/>
<feGaussianBlur stdDeviation="192" result="effect1_foregroundBlur_3396_42001"/>
</filter>
<filter id="filter5_f_3396_42001" x="-433" y="-1178" width="1430.08" height="1430.08" filterUnits="userSpaceOnUse" color-interpolation-filters="sRGB">
<feFlood flood-opacity="0" result="BackgroundImageFix"/>
<feBlend mode="normal" in="SourceGraphic" in2="BackgroundImageFix" result="shape"/>
<feGaussianBlur stdDeviation="117" result="effect1_foregroundBlur_3396_42001"/>
</filter>
<clipPath id="clip0_3396_42001">
<rect width="1120" height="832" rx="56" fill="white"/>
</clipPath>
</defs>
</svg>
