<svg width="140" height="130" viewBox="0 0 140 130" fill="none" xmlns="http://www.w3.org/2000/svg">
<g clip-path="url(#clip0_10306_12729)">
<path d="M68.9492 8.97852C69.5272 15.1307 72.5939 20.7885 78.5439 24.6543C81.7114 26.7122 84.2188 27.7983 87.1816 28.0361C89.7194 28.2398 92.5371 27.8142 96.3184 26.9619C93.4602 31.7683 88.2158 34.9873 82.2207 34.9873C73.1685 34.9872 65.8301 27.6489 65.8301 18.5967C65.8301 15.0024 66.9875 11.6803 68.9492 8.97852Z" stroke="white" stroke-width="1.66058"/>
<line x1="90.625" y1="17.199" x2="94.8951" y2="17.199" stroke="white" stroke-width="1.66058"/>
<line x1="83.0312" y1="17.199" x2="87.3013" y2="17.199" stroke="white" stroke-width="1.66058"/>
<line x1="89.0803" y1="18.9785" x2="89.0803" y2="23.2486" stroke="white" stroke-width="1.66058"/>
<line x1="89.0803" y1="11.3867" x2="89.0803" y2="15.6568" stroke="white" stroke-width="1.66058"/>
<line x1="81.1328" y1="9.13162" x2="83.505" y2="9.13162" stroke="white" stroke-width="1.66058"/>
<line x1="75.914" y1="9.13162" x2="78.2863" y2="9.13162" stroke="white" stroke-width="1.66058"/>
<line x1="79.5881" y1="10.4375" x2="79.5881" y2="12.8098" stroke="white" stroke-width="1.66058"/>
<line x1="79.5881" y1="5.69336" x2="79.5881" y2="8.06562" stroke="white" stroke-width="1.66058"/>
<g clip-path="url(#clip1_10306_12729)">
<mask id="mask0_10306_12729" style="mask-type:luminance" maskUnits="userSpaceOnUse" x="0" y="40" width="89" height="89">
<path d="M44.8416 128.878C69.115 128.878 88.7925 109.201 88.7925 84.9275C88.7925 60.6541 69.115 40.9766 44.8416 40.9766C20.5681 40.9766 0.890625 60.6541 0.890625 84.9275C0.890625 109.201 20.5681 128.878 44.8416 128.878Z" fill="white"/>
</mask>
<g mask="url(#mask0_10306_12729)">
<path d="M48.8795 37.498H42.0703V50.7298H48.8795V37.498Z" fill="white"/>
<path d="M48.4062 37.4941V83.9169" stroke="white" stroke-width="1.77322" stroke-miterlimit="10"/>
<path d="M41.4297 4.99414V51.4205" stroke="white" stroke-width="1.77322" stroke-miterlimit="10"/>
<path d="M47.2918 49.3632C45.8732 48.7107 43.7347 47.9589 41.0855 47.8986C38.1703 47.8312 35.8297 48.622 34.3438 49.2852V94.0412C35.8297 93.378 38.1739 92.5872 41.0855 92.6545C43.7347 92.7148 45.8767 93.4667 47.2918 94.1192V49.3632Z" fill="#070708" stroke="white" stroke-width="1.77322" stroke-miterlimit="10"/>
<path d="M34.2891 54.0704C35.775 53.4072 38.1192 52.6163 41.0308 52.6837C43.68 52.744 45.8221 53.4959 47.2371 54.1484" stroke="white" stroke-width="1.77322" stroke-miterlimit="10"/>
<path d="M34.3359 59.9922C35.8219 59.3291 38.1661 58.5382 41.0777 58.6056C43.7269 58.6659 45.8689 59.4177 47.284 60.0703" stroke="white" stroke-width="1.77322" stroke-miterlimit="10"/>
<path d="M34.3359 66.461C35.8219 65.7978 38.1661 65.007 41.0777 65.0743C43.7269 65.1346 45.8689 65.8865 47.284 66.539" stroke="white" stroke-width="1.77322" stroke-miterlimit="10"/>
<path d="M34.3359 72.4883C35.8219 71.8252 38.1661 71.0343 41.0777 71.1017C43.7269 71.162 45.8689 71.9138 47.284 72.5664" stroke="white" stroke-width="1.77322" stroke-miterlimit="10"/>
<path d="M34.3359 78.5196C35.8219 77.8564 38.1661 77.0656 41.0777 77.1329C43.7269 77.1932 45.8689 77.9451 47.284 78.5976" stroke="white" stroke-width="1.77322" stroke-miterlimit="10"/>
<path d="M34.3359 84.1934C35.8219 83.5302 38.1661 82.7394 41.0777 82.8068C43.7269 82.8671 45.8689 83.6189 47.284 84.2714" stroke="white" stroke-width="1.77322" stroke-miterlimit="10"/>
<path d="M56.3386 66.6543C54.9201 66.0017 52.7816 65.2499 50.1324 65.1896C47.2172 65.1222 44.8766 65.913 43.3906 66.5762V111.332C44.8766 110.669 47.2208 109.878 50.1324 109.946C52.7816 110.006 54.9236 110.758 56.3386 111.41V66.6543Z" fill="#070708" stroke="white" stroke-width="1.77322" stroke-miterlimit="10"/>
<path d="M43.3438 71.3614C44.8297 70.6982 47.1739 69.9074 50.0855 69.9747C52.7347 70.035 54.8767 70.7869 56.2918 71.4394" stroke="white" stroke-width="1.77322" stroke-miterlimit="10"/>
<path d="M43.3906 77.2833C44.8766 76.6201 47.2208 75.8292 50.1324 75.8966C52.7816 75.9569 54.9236 76.7087 56.3386 77.3613" stroke="white" stroke-width="1.77322" stroke-miterlimit="10"/>
<path d="M43.3906 83.752C44.8766 83.0888 47.2208 82.298 50.1324 82.3654C52.7816 82.4256 54.9236 83.1775 56.3386 83.83" stroke="white" stroke-width="1.77322" stroke-miterlimit="10"/>
<path d="M43.3906 89.7794C44.8766 89.1162 47.2208 88.3253 50.1324 88.3927C52.7816 88.453 54.9236 89.2048 56.3386 89.8574" stroke="white" stroke-width="1.77322" stroke-miterlimit="10"/>
<path d="M43.3906 95.8106C44.8766 95.1474 47.2208 94.3566 50.1324 94.424C52.7816 94.4842 54.9236 95.2361 56.3386 95.8886" stroke="white" stroke-width="1.77322" stroke-miterlimit="10"/>
<path d="M43.3906 101.484C44.8766 100.821 47.2208 100.03 50.1324 100.098C52.7816 100.158 54.9236 100.91 56.3386 101.562" stroke="white" stroke-width="1.77322" stroke-miterlimit="10"/>
<path d="M48.6077 90.8749C46.7671 90.2224 43.9902 89.4706 40.5537 89.4103C36.7732 89.3429 33.7304 90.1338 31.8047 90.7969V133.78C33.7304 133.117 36.7732 132.326 40.5537 132.393C43.9938 132.453 46.7706 133.205 48.6077 133.858V90.8749Z" fill="#070708" stroke="white" stroke-width="1.77322" stroke-miterlimit="10"/>
<path d="M31.7344 97.0001C33.6601 96.3369 36.7029 95.546 40.4834 95.6134C43.9235 95.6737 46.7003 96.4255 48.5374 97.0781" stroke="white" stroke-width="1.77322" stroke-miterlimit="10"/>
<path d="M31.7969 102.566C33.7226 101.903 36.7654 101.112 40.5459 101.18C43.986 101.24 46.7628 101.992 48.5999 102.644" stroke="white" stroke-width="1.77322" stroke-miterlimit="10"/>
<path d="M31.7969 108.682C33.7226 108.019 36.7654 107.228 40.5459 107.295C43.986 107.355 46.7628 108.107 48.5999 108.76" stroke="white" stroke-width="1.77322" stroke-miterlimit="10"/>
<path d="M31.7969 115.065C33.7226 114.401 36.7654 113.61 40.5459 113.678C43.986 113.738 46.7628 114.49 48.5999 115.143" stroke="white" stroke-width="1.77322" stroke-miterlimit="10"/>
<path d="M31.7969 121.094C33.7226 120.431 36.7654 119.64 40.5459 119.707C43.986 119.767 46.7628 120.519 48.5999 121.172" stroke="white" stroke-width="1.77322" stroke-miterlimit="10"/>
<path d="M31.7969 126.768C33.7226 126.104 36.7654 125.314 40.5459 125.381C43.986 125.441 46.7628 126.193 48.5999 126.846" stroke="white" stroke-width="1.77322" stroke-miterlimit="10"/>
<path d="M64.5368 109.922C62.3026 109.127 58.9264 108.216 54.7451 108.142C50.149 108.06 46.4536 109.021 44.1094 109.83V131.903C46.4536 131.094 50.149 130.133 54.7451 130.215C58.9264 130.289 62.3026 131.2 64.5368 131.995V109.922Z" fill="#070708" stroke="white" stroke-width="1.77322" stroke-miterlimit="10"/>
<path d="M44.0312 114.781C46.3754 113.972 50.0708 113.011 54.667 113.093C58.8482 113.167 62.2244 114.079 64.4587 114.873" fill="#070708"/>
<path d="M44.0312 114.781C46.3754 113.972 50.0708 113.011 54.667 113.093C58.8482 113.167 62.2244 114.079 64.4587 114.873" stroke="white" stroke-width="1.77322" stroke-miterlimit="10"/>
<path d="M44.1094 120.689C46.4536 119.88 50.149 118.919 54.7451 119.001C58.9264 119.075 62.3026 119.987 64.5368 120.781" fill="#070708"/>
<path d="M44.1094 120.689C46.4536 119.88 50.149 118.919 54.7451 119.001C58.9264 119.075 62.3026 119.987 64.5368 120.781" stroke="white" stroke-width="1.77322" stroke-miterlimit="10"/>
<path d="M44.1094 126.828C46.4536 126.019 50.149 125.058 54.7451 125.14C58.9264 125.214 62.3026 126.126 64.5368 126.92" fill="#070708"/>
<path d="M44.1094 126.828C46.4536 126.019 50.149 125.058 54.7451 125.14C58.9264 125.214 62.3026 126.126 64.5368 126.92" stroke="white" stroke-width="1.77322" stroke-miterlimit="10"/>
</g>
<mask id="mask1_10306_12729" style="mask-type:luminance" maskUnits="userSpaceOnUse" x="23" y="-5" width="49" height="114">
<path d="M71.812 -4.83203H23.2188V108.757H71.812V-4.83203Z" fill="white"/>
</mask>
<g mask="url(#mask1_10306_12729)">
<path d="M44.0248 51.8931C44.0248 52.5482 44.5559 53.0793 45.2109 53.0793C45.866 53.0793 46.3971 52.5482 46.3971 51.8931H45.2109H44.0248ZM45.2109 5.4668H44.0248V51.8931H45.2109H46.3971V5.4668H45.2109Z" fill="white"/>
<path d="M48.3984 37.4922V83.915" stroke="white" stroke-width="1.77322" stroke-miterlimit="10"/>
<path d="M51.9312 33.4334C50.7165 32.8747 48.8853 32.2309 46.6167 32.1792C44.1205 32.1215 42.1162 32.7987 40.8438 33.3666V71.6913C42.1162 71.1234 44.1235 70.4462 46.6167 70.5039C48.8853 70.5555 50.7195 71.1994 51.9312 71.7581V33.4334Z" fill="#070708" stroke="white" stroke-width="1.77322" stroke-miterlimit="10"/>
<path d="M40.7969 37.4643C42.0693 36.8964 44.0766 36.2192 46.5699 36.2769C48.8384 36.3285 50.6726 36.9723 51.8843 37.5311" stroke="white" stroke-width="1.77322" stroke-miterlimit="10"/>
<path d="M40.8359 42.5346C42.1084 41.9667 44.1157 41.2895 46.6089 41.3472C48.8774 41.3988 50.7117 42.0426 51.9234 42.6014" stroke="white" stroke-width="1.77322" stroke-miterlimit="10"/>
<path d="M40.8359 48.0756C42.1084 47.5077 44.1157 46.8305 46.6089 46.8882C48.8774 46.9398 50.7117 47.5836 51.9234 48.1424" stroke="white" stroke-width="1.77322" stroke-miterlimit="10"/>
<path d="M40.8359 53.2358C42.1084 52.6679 44.1157 51.9907 46.6089 52.0484C48.8774 52.1 50.7117 52.7438 51.9234 53.3026" stroke="white" stroke-width="1.77322" stroke-miterlimit="10"/>
<path d="M40.8359 58.3998C42.1084 57.8319 44.1157 57.1547 46.6089 57.2124C48.8774 57.2641 50.7117 57.9079 51.9234 58.4666" stroke="white" stroke-width="1.77322" stroke-miterlimit="10"/>
<path d="M40.8359 63.2573C42.1084 62.6894 44.1157 62.0122 46.6089 62.0699C48.8774 62.1215 50.7117 62.7653 51.9234 63.3241" stroke="white" stroke-width="1.77322" stroke-miterlimit="10"/>
<path d="M47.2841 49.3613C45.8655 48.7087 43.727 47.9569 41.0779 47.8966C38.1627 47.8292 35.8221 48.6201 34.3361 49.2833V94.0392C35.8221 93.3761 38.1662 92.5852 41.0779 92.6526C43.727 92.7129 45.8691 93.4647 47.2841 94.1173V49.3613Z" fill="#070708" stroke="white" stroke-width="1.77322" stroke-miterlimit="10"/>
<path d="M34.2814 54.0684C35.7674 53.4052 38.1116 52.6144 41.0232 52.6818C43.6724 52.7421 45.8144 53.4939 47.2294 54.1464" stroke="white" stroke-width="1.77322" stroke-miterlimit="10"/>
<path d="M34.3283 59.9903C35.8142 59.3271 38.1584 58.5363 41.0701 58.6036C43.7192 58.6639 45.8613 59.4158 47.2763 60.0683" stroke="white" stroke-width="1.77322" stroke-miterlimit="10"/>
<path d="M34.3283 66.459C35.8142 65.7959 38.1584 65.005 41.0701 65.0724C43.7192 65.1327 45.8613 65.8845 47.2763 66.5371" stroke="white" stroke-width="1.77322" stroke-miterlimit="10"/>
<path d="M34.3283 72.4864C35.8142 71.8232 38.1584 71.0324 41.0701 71.0997C43.7192 71.16 45.8613 71.9119 47.2763 72.5644" stroke="white" stroke-width="1.77322" stroke-miterlimit="10"/>
<path d="M34.3283 78.5176C35.8142 77.8545 38.1584 77.0636 41.0701 77.131C43.7192 77.1913 45.8613 77.9431 47.2763 78.5957" stroke="white" stroke-width="1.77322" stroke-miterlimit="10"/>
<path d="M34.3283 84.1915C35.8142 83.5283 38.1584 82.7374 41.0701 82.8048C43.7192 82.8651 45.8613 83.6169 47.2763 84.2695" stroke="white" stroke-width="1.77322" stroke-miterlimit="10"/>
<path d="M56.3308 66.6523C54.9123 65.9998 52.7738 65.2479 50.1246 65.1876C47.2094 65.1202 44.8688 65.9111 43.3828 66.5743V111.33C44.8688 110.667 47.213 109.876 50.1246 109.944C52.7738 110.004 54.9158 110.756 56.3308 111.408V66.6523Z" fill="#070708" stroke="white" stroke-width="1.77322" stroke-miterlimit="10"/>
<path d="M43.3359 71.3594C44.8219 70.6963 47.1661 69.9054 50.0777 69.9728C52.7269 70.0331 54.8689 70.7849 56.284 71.4375" stroke="white" stroke-width="1.77322" stroke-miterlimit="10"/>
<path d="M43.3828 77.2813C44.8688 76.6181 47.213 75.8273 50.1246 75.8947C52.7738 75.9549 54.9158 76.7068 56.3308 77.3593" stroke="white" stroke-width="1.77322" stroke-miterlimit="10"/>
<path d="M43.3828 83.7501C44.8688 83.0869 47.213 82.296 50.1246 82.3634C52.7738 82.4237 54.9158 83.1755 56.3308 83.8281" stroke="white" stroke-width="1.77322" stroke-miterlimit="10"/>
<path d="M43.3828 89.7774C44.8688 89.1142 47.213 88.3234 50.1246 88.3907C52.7738 88.451 54.9158 89.2029 56.3308 89.8554" stroke="white" stroke-width="1.77322" stroke-miterlimit="10"/>
<path d="M43.3828 95.8087C44.8688 95.1455 47.213 94.3546 50.1246 94.422C52.7738 94.4823 54.9158 95.2341 56.3308 95.8867" stroke="white" stroke-width="1.77322" stroke-miterlimit="10"/>
<path d="M43.3828 101.482C44.8688 100.819 47.213 100.028 50.1246 100.096C52.7738 100.156 54.9158 100.908 56.3308 101.561" stroke="white" stroke-width="1.77322" stroke-miterlimit="10"/>
<path d="M48.5999 90.873C46.7593 90.2205 43.9824 89.4686 40.5459 89.4083C36.7654 89.3409 33.7226 90.1318 31.7969 90.795V133.778C33.7226 133.115 36.7654 132.324 40.5459 132.391C43.986 132.451 46.7628 133.203 48.5999 133.856V90.873Z" fill="#070708" stroke="white" stroke-width="1.77322" stroke-miterlimit="10"/>
<path d="M31.7266 96.9981C33.6523 96.3349 36.6951 95.5441 40.4756 95.6115C43.9156 95.6717 46.6925 96.4236 48.5296 97.0761" stroke="white" stroke-width="1.77322" stroke-miterlimit="10"/>
<path d="M31.7891 102.565C33.7148 101.901 36.7576 101.11 40.5381 101.178C43.9781 101.238 46.755 101.99 48.5921 102.643" stroke="white" stroke-width="1.77322" stroke-miterlimit="10"/>
<path d="M31.7891 108.68C33.7148 108.017 36.7576 107.226 40.5381 107.293C43.9781 107.353 46.755 108.105 48.5921 108.758" stroke="white" stroke-width="1.77322" stroke-miterlimit="10"/>
<path d="M64.529 109.92C62.2948 109.126 58.9186 108.214 54.7373 108.14C50.1411 108.058 46.4458 109.019 44.1016 109.828V131.901C46.4458 131.092 50.1411 130.131 54.7373 130.213C58.9186 130.287 62.2948 131.199 64.529 131.993V109.92Z" fill="#070708" stroke="white" stroke-width="1.77322" stroke-miterlimit="10"/>
</g>
<path d="M35.1502 42.0447C15.0184 46.5639 0.255766 64.8387 0.891932 86.2319C1.61338 110.493 21.8652 129.579 46.1298 128.857C64.5097 128.311 79.9159 116.558 85.9941 100.344M57.8126 42.9252C68.5043 46.2312 77.4909 53.5178 82.9823 63.0995" stroke="white" stroke-width="1.77322" stroke-miterlimit="10" stroke-linecap="round"/>
</g>
</g>
<path d="M64.3794 92V74.4951H74.6089C79.98 74.4951 83.0684 77.5957 83.0684 82.9912V83.5039C83.0684 88.8994 79.98 92 74.6089 92H64.3794ZM73.8276 89.6929C77.4897 89.6929 79.6382 87.5322 79.6382 83.5771V82.918C79.6382 78.9629 77.4897 76.8022 73.8276 76.8022H67.6875V89.6929H73.8276ZM88.3662 86.9341C88.3662 89.1069 89.5747 90.3032 91.9551 90.3032C94.6895 90.3032 96.2642 88.7651 96.2642 86.519V79.5H99.3647V92H96.2642V89.4121C95.3853 91.292 93.4321 92.4395 90.5879 92.4395C87.0234 92.4395 85.2656 90.6938 85.2656 87.6543V79.5H88.3662V86.9341ZM102.014 74.4951H105.114V82.1978C106.079 80.147 108.068 79.0605 110.986 79.0605C115.295 79.0605 117.59 81.3677 117.59 85.5791V85.9209C117.59 90.1323 115.295 92.4395 110.986 92.4395C108.068 92.4395 106.079 91.3652 105.114 89.3145V92H102.014V74.4951ZM109.753 81.0747C106.75 81.0747 105.114 82.7349 105.114 85.5303V85.9697C105.114 88.7773 106.75 90.4253 109.753 90.4253C112.756 90.4253 114.379 88.7773 114.379 85.9697V85.5303C114.379 82.7349 112.756 81.0747 109.753 81.0747ZM124.096 92.4272C120.581 92.4272 119.104 91.0234 119.104 88.7407V88.6553C119.104 86.6289 120.202 85.5425 123.083 85.1152L130.151 84.0898V83.4185C130.151 81.8926 129.235 80.9893 126.672 80.9893C124.084 80.9893 123.107 81.8926 122.949 83.5283H119.873C119.946 80.7573 121.691 79.0483 126.733 79.0483C131.628 79.0483 133.251 80.6597 133.251 83.1499V89.4976C133.251 89.937 133.52 90.1934 134.057 90.1934C134.289 90.1934 134.558 90.1445 134.619 90.1445V92.0366C134.265 92.1221 133.654 92.2197 132.91 92.2197C130.957 92.2197 130.151 91.4263 130.151 90.0347V89.4731C129.272 91.3042 127.246 92.4272 124.096 92.4272ZM122.241 88.5942C122.241 89.7417 123.059 90.5474 125.292 90.5474C128.527 90.5474 130.151 88.9482 130.151 86.9707V85.8721L124.218 86.7388C122.851 86.9463 122.241 87.5444 122.241 88.5332V88.5942ZM136.462 92V79.5H139.562V92H136.462ZM136.34 77.6323V74.7148H139.685V77.6323H136.34Z" fill="white"/>
<defs>
<clipPath id="clip0_10306_12729">
<rect width="97.2628" height="130" fill="white"/>
</clipPath>
<clipPath id="clip1_10306_12729">
<rect width="89.6715" height="139.942" fill="white" transform="translate(0 -4.83008)"/>
</clipPath>
</defs>
</svg>
