<svg width="52" height="39" viewBox="0 0 52 39" fill="none" xmlns="http://www.w3.org/2000/svg">
<g clip-path="url(#clip0_10475_859)">
<path d="M51.6592 11.9952L51.1094 11.005L45.5537 1.03349L44.9871 0H14.9857L14.4112 1.03349L0.539238 26.0862L0 27.0638L0.539238 28.0513L6.02252 37.9308L6.59 38.9562H36.7441L37.3116 37.9308L51.2012 13.0007L51.7492 12.0123L51.6592 11.9952ZM43.6112 2.53864L30.1603 27.0376L35.3108 36.4184L35.5377 36.8306L35.4829 36.9271H34.6154L34.3806 36.5023L29.4445 27.5111H2.48085L2.26639 27.126L2.2302 27.0593L2.26639 26.9926L2.46232 26.6408H29.403L42.6757 2.46559L42.9237 2.01378H43.8169L43.8575 2.08773L43.6112 2.53864Z" fill="#070708"/>
<path d="M43.6112 2.53863L30.1603 27.0376L35.3109 36.4184L35.5377 36.8306L35.4829 36.9271H34.6154L34.3806 36.5023L29.4445 27.5111H2.48085L2.26639 27.126L2.23021 27.0593L2.26639 26.9925L2.46232 26.6408H29.4031L42.6757 2.46558L42.9237 2.01377H43.8169L43.8575 2.08772L43.6112 2.53863Z" fill="white"/>
</g>
<defs>
<clipPath id="clip0_10475_859">
<rect width="51.7492" height="38.9562" fill="white"/>
</clipPath>
</defs>
</svg>
