<svg width="32" height="32" viewBox="0 0 32 32" fill="none" xmlns="http://www.w3.org/2000/svg">
<circle cx="16" cy="16" r="16" fill="white"/>
<path d="M16.8806 7.4375C17.8439 7.44007 18.3328 7.44521 18.755 7.45719L18.9211 7.46319C19.1129 7.47004 19.3021 7.4786 19.5307 7.48888C20.4418 7.53169 21.0635 7.67555 21.6089 7.88706C22.1741 8.10456 22.6502 8.39913 23.1263 8.87438C23.5618 9.3023 23.8988 9.82014 24.1136 10.3917C24.3251 10.9372 24.4689 11.5589 24.5117 12.4708C24.522 12.6986 24.5306 12.8879 24.5374 13.0805L24.5425 13.2467C24.5554 13.668 24.5605 14.1569 24.5622 15.1202L24.5631 15.759V16.8808C24.5652 17.5054 24.5586 18.13 24.5434 18.7544L24.5383 18.9205C24.5314 19.1132 24.5229 19.3024 24.5126 19.5302C24.4698 20.4422 24.3242 21.063 24.1136 21.6093C23.8988 22.1809 23.5618 22.6988 23.1263 23.1267C22.6984 23.5623 22.1805 23.8992 21.6089 24.114C21.0635 24.3255 20.4418 24.4694 19.5307 24.5122L18.9211 24.5379L18.755 24.543C18.3328 24.555 17.8439 24.561 16.8806 24.5627L16.2418 24.5635H15.1209C14.496 24.5658 13.8712 24.5592 13.2465 24.5439L13.0804 24.5387C12.8771 24.531 12.6739 24.5222 12.4707 24.5122C11.5596 24.4694 10.938 24.3255 10.3917 24.114C9.82038 23.8991 9.30286 23.5622 8.87519 23.1267C8.4393 22.6988 8.10207 22.181 7.88705 21.6093C7.67554 21.0638 7.53169 20.4422 7.48888 19.5302L7.46319 18.9205L7.45891 18.7544C7.44312 18.13 7.43598 17.5054 7.4375 16.8808V15.1202C7.43513 14.4957 7.44141 13.8711 7.45634 13.2467L7.46233 13.0805C7.46918 12.8879 7.47774 12.6986 7.48802 12.4708C7.53083 11.5589 7.67469 10.9381 7.88619 10.3917C8.10171 9.8199 8.43954 9.30204 8.87605 8.87438C9.30346 8.43899 9.82069 8.10205 10.3917 7.88706C10.938 7.67555 11.5588 7.53169 12.4707 7.48888C12.6985 7.4786 12.8886 7.47004 13.0804 7.46319L13.2465 7.45805C13.8709 7.44284 14.4955 7.43627 15.12 7.43836L16.8806 7.4375ZM16.0003 11.719C14.8648 11.719 13.7758 12.1701 12.9729 12.973C12.17 13.776 11.7189 14.865 11.7189 16.0005C11.7189 17.1361 12.17 18.2251 12.9729 19.028C13.7758 19.831 14.8648 20.282 16.0003 20.282C17.1358 20.282 18.2248 19.831 19.0277 19.028C19.8306 18.2251 20.2817 17.1361 20.2817 16.0005C20.2817 14.865 19.8306 13.776 19.0277 12.973C18.2248 12.1701 17.1358 11.719 16.0003 11.719ZM16.0003 13.4316C16.3376 13.4316 16.6717 13.498 16.9834 13.627C17.2951 13.756 17.5783 13.9452 17.8169 14.1837C18.0554 14.4222 18.2447 14.7054 18.3739 15.0171C18.503 15.3287 18.5695 15.6627 18.5696 16.0001C18.5696 16.3375 18.5032 16.6715 18.3742 16.9832C18.2451 17.2949 18.056 17.5781 17.8175 17.8167C17.579 18.0553 17.2958 18.2446 16.9842 18.3737C16.6725 18.5029 16.3385 18.5694 16.0012 18.5694C15.3199 18.5694 14.6665 18.2988 14.1847 17.817C13.703 17.3353 13.4323 16.6818 13.4323 16.0005C13.4323 15.3192 13.703 14.6658 14.1847 14.184C14.6665 13.7023 15.319 13.4316 16.0003 13.4316ZM20.4966 10.4346C20.2127 10.4346 19.9405 10.5473 19.7398 10.7481C19.539 10.9488 19.4263 11.2211 19.4263 11.5049C19.4263 11.7888 19.539 12.0611 19.7398 12.2618C19.9405 12.4625 20.2127 12.5753 20.4966 12.5753C20.7805 12.5753 21.0527 12.4625 21.2535 12.2618C21.4542 12.0611 21.567 11.7888 21.567 11.5049C21.567 11.2211 21.4542 10.9488 21.2535 10.7481C21.0527 10.5473 20.7805 10.4346 20.4966 10.4346Z" fill="#070708"/>
</svg>
