<svg width="125" height="44" viewBox="0 0 125 44" fill="none" xmlns="http://www.w3.org/2000/svg">
<g clip-path="url(#clip0_2001_114855)">
<path d="M53.8498 13.9503L53.2999 12.9601L47.7443 2.98857L47.1777 1.95508H17.1763L16.6017 2.98857L2.72979 28.0413L2.19055 29.0189L2.72979 30.0064L8.21308 39.8859L8.78056 40.9113H38.9347L39.5021 39.8859L53.3917 14.9558L53.9398 13.9674L53.8498 13.9503ZM45.8018 4.49372L32.3508 28.9927L37.5014 38.3735L37.7282 38.7856L37.6735 38.8821H36.8059L36.5712 38.4574L31.6351 29.4662H4.6714L4.45694 29.0811L4.42076 29.0144L4.45694 28.9476L4.65287 28.5959H31.5936L44.8663 4.42067L45.1143 3.96886H46.0074L46.048 4.0428L45.8018 4.49372Z" fill="white"/>
<path d="M45.8018 4.49361L32.3509 28.9926L37.5014 38.3734L37.7282 38.7855L37.6735 38.882H36.806L36.5712 38.4573L31.6351 29.4661H4.67142L4.45696 29.081L4.42078 29.0143L4.45696 28.9475L4.65289 28.5958H31.5936L44.8663 4.42056L45.1143 3.96875H46.0074L46.048 4.0427L45.8018 4.49361Z" fill="#070708"/>
</g>
<defs>
<clipPath id="clip0_2001_114855">
<rect width="51.7492" height="38.9562" fill="white" transform="translate(2.19055 1.95508)"/>
</clipPath>
</defs>
</svg>
