<svg width="125" height="44" viewBox="0 0 125 44" fill="none" xmlns="http://www.w3.org/2000/svg">
<g clip-path="url(#clip0_10306_12926)">
<path d="M53.8497 13.9507L53.2999 12.9605L47.7442 2.98904L47.1776 1.95554H17.1762L16.6017 2.98904L2.72974 28.0418L2.19051 29.0193L2.72974 30.0068L8.21303 39.8863L8.78051 40.9117H38.9346L39.5021 39.8863L53.3917 14.9563L53.9397 13.9679L53.8497 13.9507ZM45.8017 4.49418L32.3508 28.9932L37.5013 38.374L37.7282 38.7861L37.6734 38.8826H36.8059L36.5711 38.4578L31.635 29.4666H4.67136L4.4569 29.0816L4.42071 29.0148L4.4569 28.9481L4.65282 28.5964H31.5936L44.8662 4.42114L45.1142 3.96932H46.0074L46.048 4.04327L45.8017 4.49418Z" fill="white"/>
<path d="M45.8017 4.49418L32.3508 28.9932L37.5014 38.374L37.7282 38.7861L37.6734 38.8826H36.8059L36.5711 38.4578L31.635 29.4666H4.67135L4.45689 29.0816L4.42071 29.0148L4.45689 28.9481L4.65282 28.5964H31.5936L44.8662 4.42113L45.1142 3.96931H46.0074L46.048 4.04326L45.8017 4.49418Z" fill="#070708"/>
</g>
<g clip-path="url(#clip1_10306_12926)">
<path d="M64.3182 3.3914H68.9771L67.2802 14.6233L72.4931 3.3914H77.1513L67.9977 20.5843H62.8637L64.3182 3.3914Z" fill="white"/>
<path d="M70.4952 20.5843L79.4709 3.3914H84.9895L83.4568 20.5843H78.7354L79.148 18.0506H76.3833L75.2525 20.5843H70.4952ZM77.9361 14.5769H79.8117L80.8163 8.21002L77.9361 14.5769Z" fill="white"/>
<path d="M83.6101 20.5843L88.9328 3.3914H93.6269L89.6324 16.2909H93.0615L91.7542 20.5534L83.6101 20.5843Z" fill="white"/>
<path d="M93.6982 14.4382L97.0907 3.38232H101.794L98.2065 14.8904C98.1921 14.9789 98.168 15.0654 98.1347 15.1482C98.1325 15.2399 98.1142 15.3305 98.0809 15.4156C98.0518 15.5344 98.0496 15.6584 98.0745 15.7782C98.0994 15.8979 98.1507 16.0103 98.2244 16.1065C98.3032 16.1957 98.4008 16.2652 98.5097 16.3099C98.6186 16.3546 98.736 16.3732 98.853 16.3643C99.187 16.3635 99.5081 16.2317 99.7506 15.996C100.037 15.6843 100.243 15.3047 100.352 14.8912L103.94 3.38305H108.616L105.205 14.4382L105.142 14.6135C104.746 16.2177 104.003 17.7101 102.97 18.9806C102.331 19.6434 101.555 20.1503 100.699 20.464C99.7367 20.8118 98.7215 20.9804 97.7013 20.962C95.9075 20.962 94.7035 20.5841 93.9701 19.8284C93.5831 19.3536 93.3139 18.7895 93.1857 18.1845C93.0574 17.5796 93.074 16.9517 93.2339 16.3547C93.2574 16.0761 93.3115 15.8011 93.3954 15.5349C93.465 15.241 93.5705 14.8632 93.6982 14.4382Z" fill="white"/>
<path d="M105.002 20.5843L110.388 3.3914H118.682L117.398 7.55595H113.811L113.084 9.74871H116.351L115.12 13.777H111.853L111.072 16.1082H114.66L113.286 20.5497L105.002 20.5843Z" fill="white"/>
<path d="M117.43 20.3943H116.227L117.242 17.1328H116.533L116.874 16.0176H119.486L119.145 17.1328H118.462L117.43 20.3943Z" fill="white"/>
<path d="M120.331 17.1517L119.227 20.3926H118.204L119.864 16.0159H121.255L120.914 18.3287L121.991 16.0159H123.382L122.341 20.3926H121.308L122.206 17.1517L120.699 20.3926H119.891L120.331 17.1517Z" fill="white"/>
<path d="M47.8285 41.6811L57.3285 24.4882H62.8463L61.3926 41.6811H56.6712L57.0838 39.1473H54.3191L53.1883 41.6811H47.8285ZM55.836 35.6737H57.7116L58.7528 29.3068L55.836 35.6737Z" fill="white"/>
<path d="M67.4198 41.6811H62.7164L66.6628 28.8457H63.8831L65.2278 24.4882H75.4979L74.1518 28.8464H71.3785L67.4198 41.6811Z" fill="white"/>
<path d="M81.4324 24.4882H86.0906L84.3764 35.7201L89.5915 24.4882H94.2498L85.1033 41.6811H79.96L81.4324 24.4882Z" fill="white"/>
<path d="M94.735 42.0238C94.0396 42.0757 93.343 41.9408 92.7139 41.6322C92.0848 41.3236 91.5449 40.8521 91.1473 40.2641C90.3207 38.8536 90.0601 37.1687 90.4205 35.5648C90.6752 33.9795 91.1184 32.4322 91.74 30.9576C92.2961 29.587 93.0456 28.3079 93.9644 27.1613C94.7043 26.2395 95.6209 25.4836 96.6573 24.9406C97.6333 24.4543 98.7052 24.2053 99.7901 24.2128C100.484 24.1607 101.178 24.2937 101.807 24.5988C102.436 24.9039 102.977 25.3708 103.378 25.9541C104.189 27.3806 104.437 29.0724 104.069 30.6806C103.823 32.267 103.383 33.8151 102.759 35.2879C102.199 36.6592 101.45 37.9407 100.534 39.093C99.7935 40.0112 98.8769 40.7633 97.8412 41.3027C96.8728 41.7826 95.8104 42.0292 94.735 42.0238ZM95.1117 35.9515C94.991 36.4098 94.991 36.8927 95.1117 37.351C95.1723 37.4958 95.2764 37.6169 95.4089 37.6964C95.5414 37.776 95.6953 37.8098 95.8479 37.7929C96.1851 37.7818 96.5057 37.6402 96.7456 37.3966C97.0988 37.0246 97.3846 36.5908 97.5894 36.1158C98.0071 35.224 98.3552 34.2997 98.6305 33.3514C98.9364 32.3406 99.1733 31.3091 99.3395 30.2645C99.4481 29.7982 99.4481 29.3121 99.3395 28.8458C99.2891 28.7046 99.1952 28.5841 99.0721 28.5026C98.9489 28.4211 98.8032 28.3831 98.6571 28.3943C98.2963 28.3932 97.949 28.5352 97.6877 28.7906C97.3339 29.1531 97.0506 29.5816 96.8532 30.0531C96.4343 30.9685 96.0803 31.9137 95.7941 32.8815C95.4944 33.8864 95.2665 34.9125 95.1124 35.9515H95.1117Z" fill="white"/>
<path d="M101.809 41.6811L107.113 24.4882H111.799L106.485 41.6811H101.809Z" fill="white"/>
<path d="M108.399 41.6811L113.716 24.4882H117.303C119.542 24.4882 121.106 25.0227 121.997 26.0917C122.895 27.1604 123.164 28.8096 122.823 31.0488C122.549 32.7874 122.023 34.474 121.261 36.0523C120.636 37.4402 119.755 38.6908 118.667 39.7351C117.928 40.4073 117.06 40.9127 116.118 41.2185C114.76 41.5659 113.361 41.7146 111.962 41.6605L108.399 41.6811ZM114.422 37.4429H114.673C114.956 37.4372 115.235 37.368 115.489 37.2403C115.757 37.1023 115.997 36.9148 116.198 36.6872C116.7 35.9881 117.087 35.2103 117.346 34.3839C117.764 33.268 118.065 32.1098 118.244 30.9287C118.379 30.3825 118.347 29.807 118.154 29.2795C118.047 29.0962 117.894 28.9456 117.711 28.8436C117.528 28.7415 117.321 28.6916 117.113 28.6991L114.422 37.4429Z" fill="white"/>
</g>
<defs>
<clipPath id="clip0_10306_12926">
<rect width="51.7492" height="38.9562" fill="white" transform="translate(2.19051 1.95554)"/>
</clipPath>
<clipPath id="clip1_10306_12926">
<rect width="75.8481" height="42.2833" fill="white" transform="translate(47.534 1.47025)"/>
</clipPath>
</defs>
</svg>
