<svg width="32" height="32" viewBox="0 0 32 32" fill="none" xmlns="http://www.w3.org/2000/svg">
<circle cx="16" cy="16" r="16" fill="white"/>
<path d="M13.1091 25.315C14.0465 25.5982 14.9936 25.7642 15.9993 25.7642C18.5888 25.7642 21.0723 24.7355 22.9034 22.9044C24.7345 21.0733 25.7632 18.5898 25.7632 16.0002C25.7632 14.718 25.5106 13.4484 25.02 12.2638C24.5293 11.0791 23.8101 10.0028 22.9034 9.09611C21.9967 8.18945 20.9204 7.47024 19.7358 6.97956C18.5511 6.48888 17.2815 6.23633 15.9993 6.23633C14.7171 6.23633 13.4474 6.48888 12.2628 6.97956C11.0782 7.47024 10.0018 8.18945 9.09514 9.09611C7.26405 10.9272 6.23535 13.4107 6.23535 16.0002C6.23535 20.1499 8.84232 23.7137 12.5233 25.1197C12.4354 24.3582 12.3476 23.0986 12.5233 22.2296L13.6462 17.4062C13.6462 17.4062 13.363 16.8399 13.363 15.9417C13.363 14.5942 14.2027 13.5886 15.1596 13.5886C15.9993 13.5886 16.3898 14.2037 16.3898 14.9946C16.3898 15.8343 15.8333 17.0352 15.5501 18.1874C15.3841 19.1442 16.0579 19.9839 17.0342 19.9839C18.7722 19.9839 20.1196 18.1288 20.1196 15.512C20.1196 13.1687 18.4402 11.5674 16.0286 11.5674C13.2751 11.5674 11.6543 13.6178 11.6543 15.7757C11.6543 16.6154 11.9277 17.4648 12.3769 18.0214C12.4647 18.08 12.4647 18.1581 12.4354 18.3045L12.1523 19.3688C12.1523 19.5348 12.0449 19.5934 11.8789 19.4762C10.6291 18.9294 9.90658 17.1524 9.90658 15.7171C9.90658 12.6317 12.0937 9.82945 16.3117 9.82945C19.6705 9.82945 22.2872 12.2411 22.2872 15.4437C22.2872 18.8025 20.2075 21.4973 17.2295 21.4973C16.2824 21.4973 15.3548 20.9896 15.0229 20.394L14.3687 22.7081C14.1441 23.5478 13.529 24.6706 13.1091 25.3443V25.315Z" fill="#070708"/>
</svg>
