<svg width="891" height="486" viewBox="0 0 891 486" fill="none" xmlns="http://www.w3.org/2000/svg">
<g clip-path="url(#clip0_10306_12923)">
<path d="M197.167 22.082H251.896L231.962 151.18L293.199 22.082H347.92L240.391 219.696H180.081L197.167 22.082Z" fill="white"/>
<path d="M269.729 219.696L375.168 22.082H439.996L421.991 219.696H366.528L371.375 190.573H338.898L325.614 219.696H269.729ZM357.138 150.647H379.172L390.972 77.4667L357.138 150.647Z" fill="white"/>
<path d="M423.792 219.696L486.319 22.082H541.462L494.537 170.347H534.82L519.462 219.34L423.792 219.696Z" fill="white"/>
<path d="M542.298 149.052L582.151 21.9775H637.403L595.258 154.251C595.089 155.267 594.807 156.261 594.415 157.214C594.389 158.268 594.174 159.308 593.783 160.287C593.441 161.652 593.416 163.077 593.708 164.454C594 165.831 594.602 167.122 595.469 168.228C596.395 169.253 597.541 170.052 598.82 170.566C600.1 171.079 601.479 171.293 602.853 171.191C606.776 171.182 610.548 169.667 613.397 166.958C616.758 163.375 619.185 159.012 620.461 154.259L662.606 21.986H717.538L677.475 149.052L676.733 151.067C672.076 169.506 663.357 186.66 651.219 201.262C643.709 208.88 634.592 214.707 624.541 218.313C613.234 222.31 601.308 224.249 589.324 224.036C568.251 224.036 554.108 219.693 545.493 211.007C540.946 205.549 537.784 199.066 536.278 192.113C534.772 185.159 534.966 177.942 536.845 171.081C537.12 167.878 537.757 164.717 538.741 161.658C539.559 158.28 540.798 153.937 542.298 149.052Z" fill="white"/>
<path d="M675.09 219.696L738.358 22.082H835.789L820.71 69.9489H778.564L770.026 95.1522H808.403L793.939 141.453H755.562L746.391 168.248H788.536L772.403 219.298L675.09 219.696Z" fill="white"/>
<path d="M821.079 217.511H806.952L818.871 180.024H810.543L814.547 167.206H845.229L841.225 180.024H833.209L821.079 217.511Z" fill="white"/>
<path d="M855.16 180.241L842.188 217.492H830.168L849.673 167.187H866.016L862.013 193.77L874.656 167.187H891L878.77 217.492H866.64L877.185 180.241L859.484 217.492H849.993L855.16 180.241Z" fill="white"/>
<path d="M3.45943 462.179L115.057 264.565H179.877L162.8 462.179H107.336L112.183 433.056H79.706L66.4218 462.179H3.45943ZM97.525 393.13H119.559L131.789 319.95L97.525 393.13Z" fill="white"/>
<path d="M233.603 462.179H178.35L224.71 314.65H192.056L207.852 264.565H328.497L312.684 314.659H280.106L233.603 462.179Z" fill="white"/>
<path d="M398.21 264.565H452.931L432.794 393.664L494.057 264.565H548.778L441.333 462.179H380.914L398.21 264.565Z" fill="white"/>
<path d="M554.478 466.118C546.309 466.715 538.126 465.164 530.736 461.618C523.346 458.071 517.003 452.651 512.333 445.893C502.623 429.681 499.562 410.315 503.795 391.88C506.787 373.658 511.993 355.874 519.296 338.925C525.828 323.172 534.632 308.47 545.426 295.291C554.118 284.695 564.885 276.007 577.06 269.766C588.525 264.176 601.117 261.314 613.861 261.401C622.008 260.802 630.171 262.33 637.556 265.837C644.941 269.344 651.297 274.711 656.006 281.415C665.538 297.812 668.444 317.257 664.123 335.741C661.24 353.975 656.068 371.768 648.732 388.696C642.156 404.458 633.356 419.188 622.602 432.432C613.901 442.986 603.134 451.631 590.968 457.83C579.591 463.346 567.111 466.181 554.478 466.118ZM558.904 396.324C557.486 401.592 557.486 407.142 558.904 412.41C559.615 414.074 560.838 415.466 562.395 416.38C563.951 417.294 565.759 417.683 567.552 417.489C571.513 417.361 575.279 415.734 578.097 412.935C582.246 408.658 585.603 403.673 588.009 398.212C592.916 387.963 597.006 377.338 600.24 366.439C603.833 354.821 606.616 342.965 608.568 330.958C609.844 325.599 609.844 320.012 608.568 314.653C607.976 313.029 606.873 311.644 605.426 310.707C603.98 309.771 602.268 309.334 600.552 309.463C596.313 309.451 592.234 311.082 589.164 314.018C585.007 318.185 581.68 323.11 579.361 328.528C574.44 339.05 570.282 349.915 566.92 361.038C563.399 372.589 560.722 384.382 558.912 396.324H558.904Z" fill="white"/>
<path d="M637.572 462.179L699.888 264.565H754.93L692.504 462.179H637.572Z" fill="white"/>
<path d="M714.988 462.179L777.447 264.565H819.592C845.885 264.565 864.266 270.709 874.735 282.996C885.28 295.28 888.441 314.236 884.437 339.972C881.217 359.956 875.031 379.341 866.087 397.482C858.744 413.435 848.397 427.809 835.616 439.812C826.931 447.538 816.728 453.347 805.667 456.863C789.713 460.855 773.277 462.565 756.846 461.942L714.988 462.179ZM785.741 413.466H788.691C792.019 413.4 795.293 412.605 798.284 411.138C801.425 409.551 804.249 407.396 806.611 404.78C812.501 396.745 817.056 387.805 820.098 378.306C825.001 365.48 828.536 352.168 830.643 338.592C832.224 332.314 831.856 325.7 829.589 319.637C828.329 317.529 826.53 315.799 824.38 314.626C822.229 313.453 819.804 312.88 817.358 312.966L785.741 413.466Z" fill="white"/>
</g>
<defs>
<clipPath id="clip0_10306_12923">
<rect width="891" height="486" fill="white"/>
</clipPath>
</defs>
</svg>
