<svg width="32" height="32" viewBox="0 0 32 32" fill="none" xmlns="http://www.w3.org/2000/svg">
<circle cx="16" cy="16" r="16" fill="white"/>
<path d="M14.1072 18.8972L19.019 16.0001L14.1072 13.103V18.8972ZM25.0475 11.3358C25.1705 11.7897 25.2557 12.3981 25.3124 13.1706C25.3787 13.9432 25.4071 14.6095 25.4071 15.189L25.4639 16.0001C25.4639 18.115 25.3124 19.6698 25.0475 20.6645C24.8109 21.5336 24.262 22.0937 23.4102 22.3351C22.9654 22.4607 22.1515 22.5476 20.9023 22.6055C19.672 22.6731 18.5458 22.7021 17.5048 22.7021L16 22.76C12.0346 22.76 9.56457 22.6055 8.58979 22.3351C7.73804 22.0937 7.18914 21.5336 6.95254 20.6645C6.82951 20.2106 6.74434 19.6022 6.68755 18.8296C6.62131 18.0571 6.59292 17.3907 6.59292 16.8113L6.53613 16.0001C6.53613 13.8853 6.68755 12.3305 6.95254 11.3358C7.18914 10.4667 7.73804 9.90657 8.58979 9.66514C9.03459 9.5396 9.84849 9.45269 11.0977 9.39475C12.328 9.32715 13.4542 9.29818 14.4952 9.29818L16 9.24023C19.9654 9.24023 22.4354 9.39475 23.4102 9.66514C24.262 9.90657 24.8109 10.4667 25.0475 11.3358Z" fill="#070708"/>
</svg>
