<svg width="45" height="45" viewBox="0 0 45 45" fill="none" xmlns="http://www.w3.org/2000/svg">
<g clip-path="url(#clip0_2712_3142)">
<path d="M45 45H33.75C33.75 38.7931 28.7132 33.75 22.5 33.75C16.2868 33.75 11.25 38.7868 11.25 45H0C0 32.5737 10.0737 22.5 22.5 22.5C34.9263 22.5 45 32.5737 45 45Z" fill="#6079E4"/>
<path d="M0 0H11.25C11.25 6.2069 16.2868 11.25 22.5 11.25C28.7132 11.25 33.75 6.2069 33.75 0H45C45 12.4263 34.9263 22.5 22.5 22.5C10.0737 22.5 0 12.4263 0 0Z" fill="#6079E4"/>
</g>
<defs>
<clipPath id="clip0_2712_3142">
<rect width="45" height="45" fill="white"/>
</clipPath>
</defs>
</svg>
