<svg width="61" height="30" viewBox="0 0 61 30" fill="none" xmlns="http://www.w3.org/2000/svg">
<g clip-path="url(#clip0_2712_3149)">
<path d="M30.5032 30C38.9554 30 45.8072 23.2843 45.8072 15C45.8072 6.71573 38.9554 0 30.5032 0C22.0511 0 15.1992 6.71573 15.1992 15C15.1992 23.2843 22.0511 30 30.5032 30Z" fill="#5C9ADE"/>
<path d="M15.1991 14.9999C15.1991 23.229 8.39591 29.8971 0 29.8971V0.102783C8.38974 0.102783 15.1991 6.77079 15.1991 14.9999Z" fill="#5C9ADE"/>
<path d="M45.8008 14.9999C45.8008 23.229 52.6039 29.8971 60.9998 29.8971V0.102783C52.6101 0.102783 45.8008 6.77079 45.8008 14.9999Z" fill="#5C9ADE"/>
</g>
<defs>
<clipPath id="clip0_2712_3149">
<rect width="61" height="30" fill="white"/>
</clipPath>
</defs>
</svg>
