<svg width="48" height="46" viewBox="0 0 48 46" fill="none" xmlns="http://www.w3.org/2000/svg">
<g clip-path="url(#clip0_2712_2983)">
<path d="M24 15.9138C28.7779 18.6963 31.9939 23.9079 31.9939 29.8756C31.9939 29.9375 31.9939 29.9995 31.9877 30.0615C29.6203 31.462 26.8778 32.2614 23.9385 32.2614C20.9992 32.2614 18.3428 31.493 16.0061 30.1296C16 30.0491 16 29.9561 16 29.8756C16 23.9079 19.216 18.6963 24.0061 15.9138H24Z" fill="#F95D79"/>
<path d="M31.9999 13.7448C29.0913 13.7448 26.355 14.5257 24.006 15.9076C21.6571 14.5319 18.9207 13.7448 15.9999 13.7448C13.079 13.7448 10.3119 14.5443 7.95068 15.9386C8.04292 7.1203 15.1697 0 23.9384 0C32.707 0 39.8031 7.08312 39.9322 15.8704C37.5956 14.5195 34.89 13.7448 31.9999 13.7448Z" fill="#F95D79"/>
<path d="M16.006 30.1233C16.092 35.9918 19.2834 41.0919 23.9998 43.8372C21.6508 45.2129 18.9145 45.9999 15.9937 45.9999C7.15737 45.9999 -0.00634766 38.7805 -0.00634766 29.8692C-0.00634766 23.9264 3.19119 18.7271 7.94446 15.9385C7.93831 16.0004 7.93831 16.0624 7.93831 16.1244C7.93831 22.123 11.185 27.3595 15.9998 30.1233H16.006Z" fill="#F95D79"/>
<path d="M23.9385 32.255C21.0484 32.255 18.3428 31.4866 16.0061 30.1233C16 30.0427 16 29.9498 16 29.8692C16 23.9015 19.216 18.6899 24.0061 15.9075C28.784 18.6899 32 23.9015 32 29.8692C32 29.9312 32 29.9931 31.9939 30.0551C29.6264 31.4556 26.8839 32.255 23.9447 32.255H23.9385Z" fill="#F95D79"/>
<path d="M31.9997 29.8692C31.9997 29.9312 31.9997 29.9931 31.9936 30.0551C29.6262 31.4556 26.8836 32.255 23.9444 32.255C21.0051 32.255 18.3487 31.4866 16.012 30.1233C16.0059 30.0427 16.0059 29.9498 16.0059 29.8692C16.0059 23.9015 19.2218 18.6899 24.012 15.9075C28.7899 18.6899 32.0059 23.9015 32.0059 29.8692H31.9997Z" fill="#F95D79"/>
<path d="M47.9997 29.8693C47.9997 38.7805 40.836 46 31.9997 46C29.0912 46 26.3548 45.2191 24.0059 43.8372C28.7345 41.0796 31.9321 35.9485 31.9936 30.0552C36.7468 27.2666 39.9444 22.0735 39.9444 16.1244C39.9444 16.0439 39.9444 15.9509 39.9382 15.8704C44.7591 18.6466 47.9997 23.883 47.9997 29.8693Z" fill="#F95D79"/>
</g>
<defs>
<clipPath id="clip0_2712_2983">
<rect width="48" height="46" fill="white"/>
</clipPath>
</defs>
</svg>
