<svg width="49" height="33" viewBox="0 0 49 33" fill="none" xmlns="http://www.w3.org/2000/svg">
<g clip-path="url(#clip0_2712_3157)">
<path d="M32.6687 16.4969C32.6687 25.6121 25.355 33 16.3313 33C7.30756 33 0 25.6121 0 16.4969C0 7.38166 7.31371 0 16.3313 0V8.25155C11.8225 8.25155 8.16872 11.9424 8.16872 16.4969C8.16872 21.0514 11.8225 24.7484 16.3313 24.7484C20.8401 24.7484 24.5 21.0576 24.5 16.4969H32.6687Z" fill="#6459EB"/>
<path d="M48.9998 16.4969C48.9998 25.6121 41.6922 33 32.6685 33V24.7484C37.1773 24.7484 40.8311 21.0576 40.8311 16.4969C40.8311 11.9362 37.1773 8.25155 32.6685 8.25155C28.1597 8.25155 24.4998 11.9424 24.4998 16.4969H16.3311C16.3311 7.38166 23.6448 0 32.6685 0C41.6922 0 48.9998 7.38787 48.9998 16.4969Z" fill="#6459EB"/>
</g>
<defs>
<clipPath id="clip0_2712_3157">
<rect width="49" height="33" fill="white"/>
</clipPath>
</defs>
</svg>
