<svg width="46" height="46" viewBox="0 0 46 46" fill="none" xmlns="http://www.w3.org/2000/svg">
<g clip-path="url(#clip0_2712_2975)">
<path d="M26.8465 26.844C35.8274 17.8632 41.3853 8.86025 39.2605 6.73543C37.1357 4.61062 28.1327 10.1685 19.1519 19.1494C10.171 28.1302 4.61313 37.1331 6.73794 39.258C8.86276 41.3828 17.8657 35.8249 26.8465 26.844Z" fill="#F45584"/>
<path d="M39.2605 39.2582C41.3853 37.1334 35.8274 28.1305 26.8465 19.1496C17.8657 10.1688 8.86276 4.61088 6.73794 6.73569C4.61313 8.86051 10.171 17.8634 19.1519 26.8443C28.1327 35.8251 37.1357 41.383 39.2605 39.2582Z" fill="#F45584"/>
<path d="M22.9969 28.438C35.6977 28.438 45.9938 26.002 45.9938 22.9971C45.9938 19.9921 35.6977 17.5562 22.9969 17.5562C10.2961 17.5562 0 19.9921 0 22.9971C0 26.002 10.2961 28.438 22.9969 28.438Z" fill="#F45584"/>
<path d="M22.9956 45.9938C26.0006 45.9938 28.4365 35.6977 28.4365 22.9969C28.4365 10.2961 26.0006 0 22.9956 0C19.9907 0 17.5547 10.2961 17.5547 22.9969C17.5547 35.6977 19.9907 45.9938 22.9956 45.9938Z" fill="#F45584"/>
</g>
<defs>
<clipPath id="clip0_2712_2975">
<rect width="46" height="46" fill="white"/>
</clipPath>
</defs>
</svg>
